<svg viewBox="0 0 32 32" xmlns="http://www.w3.org/2000/svg"><title/><g data-name="trello collaboration group" id="trello_collaboration_group"><path d="M25,2H7A5,5,0,0,0,2,7V25a5,5,0,0,0,5,5H20a1,1,0,0,0,0-2H7a3,3,0,0,1-3-3V7A3,3,0,0,1,7,4H25a3,3,0,0,1,3,3V25a3,3,0,0,1-3,3H24a1,1,0,0,0,0,2h1a5,5,0,0,0,5-5V7A5,5,0,0,0,25,2Z"/><path d="M8,6A2,2,0,0,0,6,8V22a2,2,0,0,0,2,2h5a2,2,0,0,0,2-2V8a2,2,0,0,0-2-2ZM8,22V8h5V22Z"/><path d="M26,16V8a2,2,0,0,0-2-2H19a2,2,0,0,0-2,2v8a2,2,0,0,0,2,2h5A2,2,0,0,0,26,16ZM19,8h5v8H19Z"/></g></svg>